# xmcd CD database file
#
# Track frame offsets:
#	150
#	25379
#	47300
#	70408
#	88239
#	106142
#	129679
#	145763
#	164581
#	178442
#	197812
#	221614
#	231057
#	257351
#	276843
#	299616
#	324032
#
# Disc length: 4668 seconds
#
# Revision: 0
# Processed by: cddbd v1.5.2PL0 Copyright (c) Steve Scherf et al.
# Submitted via: CDex 1.70beta2
#
DISCID=02123a11
DTITLE=Various Artist - Smooth Jazz part 1
DYEAR=1900
DGENRE=Jazz
TTITLE0=Flame
TTITLE1=Just My Imagination
TTITLE2=Floor and More
TTITLE3=Morning Dance
TTITLE4=Midnight at the Oasis
TTITLE5=Why can't we live together
TTITLE6=Time after Time
TTITLE7=Fragile
TTITLE8=Partners in crime
TTITLE9=Shine
TTITLE10=On the milky way
TTITLE11=Ain't no sunshine
TTITLE12=That's the way of the world
TTITLE13=In the groove
TTITLE14=88 ways to love
TTITLE15=Didn't I (blow your mind this time)
TTITLE16=Dancing in the dark
EXTD=
EXTT0=
EXTT1=
EXTT2=
EXTT3=
EXTT4=
EXTT5=
EXTT6=
EXTT7=
EXTT8=
EXTT9=
EXTT10=
EXTT11=
EXTT12=
EXTT13=
EXTT14=
EXTT15=
EXTT16=
PLAYORDER=
